<?xml version="1.0" encoding="UTF-8"?><svg id="Layer_2" xmlns="http://www.w3.org/2000/svg" viewBox="0 0 278.6 299.38"><defs><style>.cls-1{fill:#fbc465;}.cls-2{fill:#ee610c;}</style></defs><g id="Layer_1-2"><g><path class="cls-2" d="M268.01,226.04c7.39,3.66,10.91,9.19,10.56,17.82-.53,13-.12,26.04-.12,39.06,0,10.22-6.09,16.44-16.24,16.44-81.54,.02-163.09,.02-244.63,0-11.79,0-17.39-5.41-17.5-17.11-.13-13.79-.09-27.58,.01-41.36,.07-9.6,5.87-15.13,15.53-15.12,15.92,0,31.85,.02,47.77,0,1.68,0,3.36-.21,6.51-.42-5.41-6.12-10.03-11.45-13.86-17.41-27.23-42.39-15.37-101.73,25.96-130.61,6.16-4.3,12.66-7.72,19.29-11.05,2.53,1.19,7.07-4.22,7.95,2.4-8.85,1.14-16.02,6.03-23.07,10.81-20.19,13.69-31.99,33.31-38.72,56.29-.73,2.5-1.64,5.66,3.06,5.29,0,1.16,.01,2.33,.02,3.49-5.19,4.48-4.98,10.2-3.5,16.21,.26-5.62,3.64-10.55,3.42-16.28,2.12-.49,1.77-3.87,4.28-3.84,1.8,2.52-1.98,5.43,.61,7.96,1.51-1.08,1.66-2.53,2.17-3.91,1.26-3.43,3.74-9.77,4.24-9.63,6.93,1.94,7.28-4.82,10.45-7.46,2.83-2.34,1.9-8.63-1-10.66,1.34-3.08,3.92-4.68,6.93-5.75l-.02-.02c.24,3.56-1.36,7.29,.83,10.98,4.2-3.1,3.85-9.49,9.63-11.68v5.99c.99-4.68,5.74-6.8,6.85-11.04l-.05,.05c1.29,.15,3.26-.16,3.75,.55,1.14,1.64-1.07,2.43-1.8,3.61-.69,1.13-1.66,2.11-2.21,3.29-2.05,4.41-.85,6.41,3.92,6.54,4.18,.12,8.38-.17,12.54,.16,3.41,.27,3.41-.85,2.47-3.56-1.93-5.58-3.04-11.35-2.56-17.32,.14-1.76,.29-3.55-2.26-3.65l.02,.02c.13-1.58,.15-3.24,2.32-3.48,.09,.49,.17,.97,.26,1.46l.57-.35-.87-1.08c-.19-2.1,.74-3.71,2.36-4.91,1.88-1.39,2.6-3.19,2.25-5.46,3.6,5.06,8.24,8.53,14.7,8.18,7.91-.43,15.72,2.79,24.14-.32-1.31,3.37-3.61,4.44-5.52,5.95-2.03,1.6-5.06,2.8-4.98,5.79,.07,2.72-1.7,2.72-3.22,3.04-1.96,.42-4.64,.02-5.01-1.81-1.59-7.85-10.04-7.4-13.85-13.45-.66,2.73-.96,4.22-1.39,5.66-3.02,10.27-3.57,20.35,1.53,30.26,.62,1.2,.78,1.19,1.82,.95,3.61-.82,5.56,.94,7,4.16,1.26,2.82,4.61,3.66,7.07,4.19,2.61,.56,3.28-3.06,3.67-4.99,1.13-5.67,5.36-7.88,9.48-11.06,5.3-4.1,9.99-6.26,16.42-3.5,2.78,1.19,5.78,2.22,8.75,2.52,3.43,.35,7.67,.57,5.31-5.35-.41-1.02-1.2-2.9,1.2-2.82,4.09,.15,9.55-2.63,10.58,4.63,.07,.49,.64,.92,.97,1.38,4.98-3.95,5.84,2.31,8.67,3.6,8.67,3.95,15.15,9.77,15.35,20.23,.01,.53,.33,1.05,.94,2.87,1.91-5.62,1.45-9.06-.1-12.69-1.71-4.01-4.97-7.27-5.59-11.77l-.03,.03c1.93,.06,2.31,1.73,3.1,2.97,6.82,10.74,9.21,23.13,13.06,34.97-2.87-.87-1.69-4.85-4.72-6.22,.41,10.39,3.55,20.08,3.33,30.11v-14.59c1.8-.68,1.5,2.04,2.79,1.37,1.26-.66,.83-2.04,.42-3.02-1.04-2.47-2.05-4.92-1.84-7.68,4.5,3.4,2.34-1.47,2.35-2.19,.69-34.2-25.96-71.74-58.67-83.15-4-1.4-5.17,.9-6.49,3.54-.98,1.96-.17,4.77-2.85,5.91l.04,.03c.06-6.48,3.77-11,8.18-15.14,13.57,6.21,26.34,13.57,36.89,24.38,13.58,13.91,21.86,30.39,25.6,49.45,4.35,22.23,1.33,43.39-8.75,63.4-3.94,7.81-8.59,15.52-15.24,21.6-.88,.81-.9,1.54-.66,2.5,.84,.36,1.68,1.03,2.51,1.03,18.32-.03,36.64-.13,54.96-.21Zm-66.69-79.14c-.38-.78-.76-1.56-1.14-2.34-2.87-9.25-11.28-14.87-14.97-23.67-.21,2.17,.68,3.85,.97,5.62,1,6.22,6.93,9.79,8.3,15.77-.16,.06-.34,.09-.46,.2-.07,.06-.04,.23-.06,.35l.46-.6c2.6-.9,3.67,2.06,5.83,2.29,.02,.95,.21,1.82,1.13,2.34,.08,2.29,.03,4.69,2.21,6.15,.74,.49,1.72-.28,1.71-.97-.06-2.6-2.33-3.66-3.98-5.14ZM7.86,235.38c-1.77,1.25-2.06,3.15-2.07,5.08-.02,15.1-.12,30.21,.12,45.31,.04,2.77,.03,6.44,4.27,7.08,1.72,3.07,4.71,2.05,7.24,2.05,81.16,.05,162.32,.04,243.48,.03,9.02,0,11.66-2.57,11.7-11.58,.07-13.98,.04-27.96,.02-41.94-.01-7.44-2.91-10.17-10.36-10.51-9.49-.42-18.97,.19-28.46,.16-72.14-.27-144.29-.15-216.43-.11-2.56,0-5.5-.87-7.33,2-1.4,.21-2.2,.94-2.19,2.42Zm131.55-80.91c-.31-1.49-.57-2.98-.93-4.46-.49-2.08-1-4.46-3.8-4.14-2.58,.3-2.42,2.64-2.36,4.53,.15,4.49-2.47,7.6-5.39,10.36-3.38,3.19-6.01,6.67-8.03,10.95-1.89,4-4.04,8.23-8.94,9.95-16.96,5.96-34.14,11.12-52.32,10.61-5.29-.15-3.97,1.76-2.59,4.39,2.32,4.4,4.84,8.7,7.21,13.07,1.94,3.58,4.32,5.27,8.81,4.03,3.09-.86,6.3-1.42,9.44-2.31,11.34-3.19,22.72-6.26,34.14-9.18,2.61-.67,5.17-.04,7.63,1.58,3.73,2.46,8.01,2.54,12.12,1.01,1.9-.71,3.53-.88,5.51-.42,6.05,1.39,7.83,.2,9.39-5.77,1.38-5.3,.08-11.39,3.8-15.94,3.66-4.47,.68-6.8-2.23-9.33-3.47-3.01-7.7-4.36-12.16-4.45-4.75-.1-4.55-2.15-2.79-5.37,1.55-2.84,3.49-5.56,3.46-9.1Zm57.4-5.25c.2-2.89-.15-5.03-3.9-4.71-2.82,.24-3.92-.33-4.7-4.17-1.22-6.06-5.09-11.61-7.96-17.31-.36-.72-1.48-1.41-2.41-.53-.77,.74-.75,2.19-.13,2.62,3.94,2.74,3.37,7.47,5.19,11.12,1.64,3.28,1.76,5.42-2.93,6.44-5.68,1.24-6.22,4.58-2.17,8.89,2.6,2.77,5.14,5.59,7.63,8.46,1.25,1.44,2.64,2.63,4.31,1.04,3.44-3.29,6.63-6.83,7.07-11.86Zm11.37,68.35c-.55-1.81-.07-4.73-3.19-4.89-2.5-.13-2.03,2.1-2.17,3.74-.21,2.48,.75,4.8,2.99,5.2,1.54,.28,2.52-1.9,2.37-4.04Zm-128.56,3.54c-1.43,.88-3.98,.78-4.22,2.99-.17,1.57,1.68,1.7,3.01,1.77,1.74,.1,3.04-.38,2.95-2.45-.04-1.08,.18-2.42-1.75-2.31Z"/><path class="cls-1" d="M214.05,116.96c.62,4.5,3.88,7.76,5.59,11.77,1.55,3.63,2.01,7.07,.1,12.69-.61-1.83-.93-2.35-.94-2.87-.2-10.46-6.69-16.28-15.35-20.23-2.83-1.29-3.69-7.55-8.67-3.6-.34-.46-.9-.88-.97-1.38-1.03-7.26-6.49-4.48-10.58-4.63-2.4-.09-1.61,1.8-1.2,2.82,2.36,5.92-1.87,5.7-5.31,5.35-2.98-.3-5.98-1.32-8.75-2.52-6.43-2.76-11.12-.6-16.42,3.5-4.11,3.19-8.34,5.39-9.48,11.06-.39,1.93-1.05,5.55-3.67,4.99-2.46-.53-5.81-1.37-7.07-4.19-1.44-3.22-3.39-4.98-7-4.16-1.04,.24-1.2,.25-1.82-.95-5.1-9.91-4.55-20-1.53-30.26,.43-1.45,.72-2.93,1.39-5.66,3.82,6.05,12.27,5.6,13.85,13.45,.37,1.83,3.05,2.23,5.01,1.81,1.51-.32,3.29-.33,3.22-3.04-.08-2.99,2.95-4.19,4.98-5.79,1.91-1.51,4.21-2.58,5.52-5.95-8.41,3.1-16.22-.11-24.14,.32-6.46,.35-11.1-3.12-14.7-8.18l.03,.03c-.76-3.04-1.65-6.06-2.25-9.13-.53-2.72-2.08-3.75-4.7-3.55l.03,.03c-.88-6.63-5.42-1.22-7.95-2.4,1.23-1.11,3.32-1.61,1.8-4.17-3.67-6.2-6.04-11.89-.3-19.08,2.59-3.25,.09-9.91,2.67-14.6,.1,3.04,.58,6.13,.22,9.12-.64,5.39-.19,10,5.73,12.38,0-2.73,.04-5.41-.01-8.09-.05-2.85,1.39-4.59,4.14-4.27,7.78,.9,15.03-2.3,22.7-2.68,4.8-.23,9.04,.39,13.29,2.01,1.66,.63,4.45,.88,4.28,3.06-.18,2.22-2.86,1.94-4.69,2.29-1.67,.32-3.4,.58-4.96,1.22-1.66,.69-2.9,1.95-2.31,4.05,.59,2.11,3.06,3.99,4.03,3.24,2.45-1.91,4.25,.23,6.3,.16,6.53-.23,8.85-2.6,8.15-9.42-.17-1.68-.06-3.44,1.93-3.32,1.43,.09,3.68,.19,3.69,2.72,0,1.15-.14,2.35,.14,3.43,.32,1.26-.99,3.56,1.25,3.62,2.03,.06,3.41-1.51,3.28-3.88-.07-1.33,0-2.68,0-4.02,3.11,5.52,7.37,10.82,3.51,17.72-1.14,2.03-2.29,4.05-3.44,6.08-4.41,4.14-8.12,8.66-8.18,15.14-4.52,3.7-5.65,8.5-4.02,13.85,.9,2.98,.61,5.62-.59,8.32q-2.39,5.37,2.27,9.15c6.48-5.13,4.81-13.08,6.84-19.75l.15-.15c.69,6.01,6.96,7.53,9.74,11.9,.65,1.03,1.45-.26,1.54-1.28,.14-.16,.28-.32,.42-.48,1.85,.09,3.69,.17,5.54,.26,5.1,2.93,9.95,6.46,16.12,6.91,1.25,2.26,3.47,2.91,5.77,3.44,.38,.39,.76,.78,1.14,1.17,.08,.15,.13,.32,.25,.43,.07,.07,.24,.03,.36,.04l-.59-.49-1.18-1.13c-.79-3.01-3.39-3.03-5.75-3.46-5.1-2.94-9.98-6.41-16.14-6.88-.52-.52-.97-1.36-1.58-1.53-6.42-1.67-13.12-2.73-14.59-11.13-.27-1.57-2.32-3-3.81-4.15-1.78-1.38-2.01-3.11-1.91-5.07,2.68-1.14,1.88-3.96,2.85-5.91,1.32-2.64,2.49-4.94,6.49-3.54,32.71,11.41,59.36,48.96,58.67,83.15-.01,.72,2.15,5.58-2.35,2.19l.03,.04c-3.85-11.84-6.25-24.23-13.06-34.97-.79-1.24-1.17-2.91-3.1-2.97-.26-.63-.51-1.25-.77-1.88l-.69,.37,1.5,1.48ZM127.65,51.73c2.02-.43,4.33-.39,5.98-1.41,1.61-1,4.18-2.01,4.04-4.37-.16-2.68-2.97-2.54-4.86-3.17-3.19-1.07-6.68-1.04-9.65-3.06-2.45-1.67-3.69,1.06-5.21,2.16-.92,.66-2.2,2.32-.77,3.38,3.25,2.42,5.5,6.62,10.47,6.47Zm3.77,21.68c-2.04-.04-3.29,1.08-4.24,2.6-.65,1.03-.9,2.27-.09,3.21,1.21,1.4,2.68,.58,4.2,.31,6.21-1.1,12.46-1.6,18.52,.75,1.63,.63,2.96,.98,3.82-.84,.73-1.54,.63-3.17-1.13-3.86-3.44-1.34-6.83-4.56-10.64-.59-2.46,2.56-5.16,1.82-7.78,.21-.92-.57-1.33-1.94-2.64-1.78Zm2.78-7.48c7.84,3.57,9.04,3.56,12.44-.08-4.17,.77-8.29,.04-12.44,.08Zm40.85,47.28c1.47-.8,3.53-1.09,3.89-2.89,.41-2.02-1.41-2.39-2.92-2.4-1.51,0-3.25,.36-2.97,2.37,.15,1.06,.28,2.67,2,2.92Z"/><path class="cls-2" d="M172.63,40.1c0,1.34-.08,2.68,0,4.02,.13,2.37-1.24,3.93-3.28,3.88-2.24-.06-.92-2.36-1.25-3.62-.28-1.09-.14-2.28-.14-3.43-.01-2.53-2.26-2.63-3.69-2.72-1.99-.12-2.11,1.65-1.93,3.32,.7,6.81-1.62,9.18-8.15,9.42-2.05,.07-3.84-2.07-6.3-.16-.97,.76-3.44-1.13-4.03-3.24-.59-2.1,.64-3.36,2.31-4.05,1.56-.64,3.28-.91,4.96-1.22,1.83-.35,4.51-.07,4.69-2.29,.17-2.18-2.62-2.43-4.28-3.06-4.26-1.62-8.49-2.25-13.29-2.01-7.67,.37-14.92,3.57-22.7,2.68-2.75-.32-4.19,1.42-4.14,4.27,.05,2.68,.01,5.36,.01,8.09-5.92-2.38-6.37-7-5.73-12.38,.35-2.99-.12-6.08-.22-9.12-.18-1.76,.36-3.24,1.68-4.44,1.61,5.14,3.78,3.08,6.39,.69,10.43-9.55,22.45-13.38,36.51-9.86,9.7,2.43,14.96,9.99,20.56,17.21,1.4,2.5,.03,5.69,2.02,8.04Z"/><path class="cls-1" d="M170.61,32.06c-5.61-7.22-10.87-14.78-20.56-17.21-14.06-3.52-26.08,.31-36.51,9.86-2.62,2.39-4.78,4.46-6.39-.69-.3-6.25,2.38-10.96,7.55-14.32,3.04-1.97,6.11-3.9,9.23-5.75,8.56-5.07,17.2-5.08,26.28-1.02,6.04,2.7,12.56,4.08,16.81,10.04,3.36,4.71,4.77,9.88,5.64,15.34,.24,1.49,.79,3.68-2.04,3.76Z"/><path class="cls-1" d="M268.01,226.04c-18.32,.09-36.64,.19-54.96,.21-.84,0-1.68-.67-2.51-1.03,18.12-.04,36.23-.09,54.35-.12,1.12,0,2.32-.15,3.13,.94Z"/><path class="cls-1" d="M139.41,154.46c.03,3.53-1.9,6.26-3.46,9.1-1.76,3.23-1.96,5.28,2.79,5.37,4.46,.09,8.69,1.44,12.16,4.45,2.91,2.53,5.89,4.86,2.23,9.33-3.73,4.56-2.42,10.64-3.8,15.94-1.56,5.97-3.34,7.17-9.39,5.77-1.99-.46-3.61-.29-5.51,.42-4.12,1.54-8.39,1.45-12.12-1.01-2.46-1.62-5.02-2.25-7.63-1.58-11.42,2.92-22.79,6-34.14,9.18-3.14,.88-6.35,1.45-9.44,2.31-4.49,1.24-6.87-.45-8.81-4.03-2.37-4.37-4.89-8.67-7.21-13.07-1.38-2.63-2.7-4.53,2.59-4.39,18.18,.5,35.36-4.65,52.32-10.61,4.9-1.72,7.05-5.95,8.94-9.95,2.02-4.28,4.65-7.75,8.03-10.95,2.92-2.76,5.54-5.87,5.39-10.36-.07-1.89-.22-4.23,2.36-4.53,2.8-.32,3.3,2.06,3.8,4.14,.35,1.48,.62,2.97,.93,4.46Z"/><path class="cls-1" d="M116.12,81.32c.34,2.27-.38,4.07-2.25,5.46-1.62,1.2-2.55,2.81-2.36,4.91l.04-.03c-2.16,.23-2.19,1.89-2.32,3.48-.92,.5-1.13,1.35-1.14,2.31-.39,.38-.78,.76-1.17,1.14l-1.15,1.15c-1.84,0-3.46,.5-5.44,2.08,2.78,.37,4.41-.13,5.43-2.08,.38-.38,.77-.77,1.15-1.15,.38-.39,.76-.77,1.14-1.16,.92-.5,1.16-1.33,1.15-2.3,2.55,.11,2.41,1.89,2.26,3.65-.48,5.97,.63,11.74,2.56,17.32,.94,2.72,.94,3.83-2.47,3.56-4.16-.33-8.36-.05-12.54-.16-4.78-.13-5.97-2.13-3.92-6.54,.55-1.18,1.52-2.17,2.21-3.29,.73-1.19,2.93-1.97,1.8-3.61-.49-.71-2.45-.4-3.75-.55,.07-.68,.15-1.36,.22-2.04-2.27-.19-3.8,.97-4.94,2.96,1.59-.32,3.18-.65,4.76-.97-1.12,4.24-5.86,6.36-6.85,11.04v-5.99c-5.78,2.19-5.43,8.58-9.63,11.68-2.19-3.69-.59-7.42-.83-10.98,2.68-.16,5.07-1,7.05-2.78-2.59,.36-5.44,.14-7.04,2.8-3.01,1.07-5.59,2.67-6.93,5.75l.03-.02c-1.63,.07-3.3,.08-3.48,2.32l.02-.02c-1.31-.06-2.6-.05-3.49,1.17l.03-.03c-2.65,.43-3.6,2.13-3.48,4.64l.03-.04c-1.55,0-2.15,.97-2.34,2.33l.03-.04c-.93,.51-1.16,1.37-1.18,2.34l.03-.04c-1.07,.44-1.17,1.37-1.18,2.35l.03-.04c-2.15,.25-2.3,1.83-2.34,3.49l.03-.04c-2.91,.88-3.25,3.31-3.49,5.79l.04-.05c-4.7,.37-3.79-2.79-3.06-5.29,6.73-22.98,18.53-42.6,38.72-56.29,7.05-4.78,14.22-9.68,23.07-10.81l-.03-.03c2.14,2.21,3.36,4.79,3.98,7.85,.36,1.76,.13,4.38,2.97,4.82l-.03-.03Z"/><path class="cls-1" d="M10.04,232.96c1.83-2.87,4.77-2,7.33-2,72.14-.04,144.29-.16,216.43,.11,9.49,.03,18.97-.58,28.46-.16,7.46,.33,10.35,3.06,10.36,10.51,.02,13.98,.05,27.96-.02,41.94-.04,9.01-2.68,11.58-11.7,11.58-81.16,0-162.32,.01-243.48-.03-2.53,0-5.52,1.02-7.24-2.05l-.04,.04c.57-.03,1.15-.1,1.72-.1,83.08,.01,166.16,.03,249.24,.04,7.76,0,9.42-1.62,9.43-9.4,.03-13.6,.03-27.19,0-40.79-.02-8.13-1.54-9.57-9.86-9.58-35.88-.01-71.76-.04-107.64-.02-47.58,.04-95.17,.12-142.75,.18l-.25-.27Z"/><path class="cls-1" d="M196.81,149.22c-.44,5.03-3.63,8.57-7.07,11.86-1.66,1.59-3.06,.4-4.31-1.04-2.48-2.87-5.03-5.69-7.63-8.46-4.05-4.32-3.51-7.65,2.17-8.89,4.69-1.03,4.56-3.16,2.93-6.44-1.82-3.65-1.25-8.38-5.19-11.12-.62-.43-.64-1.88,.13-2.62,.92-.89,2.04-.19,2.41,.53,2.87,5.7,6.74,11.25,7.96,17.31,.77,3.84,1.88,4.41,4.7,4.17,3.75-.32,4.1,1.82,3.9,4.71Z"/><path class="cls-1" d="M50.51,144.59c0-1.16-.01-2.33-.02-3.49l-.04,.05c2.2-1.31,2.87-3.53,3.49-5.79l-.03,.04c1.39-.76,2.09-1.97,2.34-3.49l-.03,.04c.39-.78,.79-1.56,1.18-2.35l-.03,.04c.99-.48,1.2-1.35,1.18-2.34l-.03,.04c1.44-.12,2.12-.99,2.34-2.33l-.03,.04c1.55-1.26,3.18-2.45,3.48-4.64l-.03,.03c1.3,.03,2.6,.04,3.49-1.17l-.02,.02c1.52-.23,2.73-.93,3.48-2.32l-.03,.02c2.9,2.04,3.82,8.32,1,10.66-3.17,2.63-3.52,9.4-10.45,7.46-.5-.14-2.98,6.2-4.24,9.63-.51,1.39-.66,2.84-2.17,3.91-2.6-2.54,1.19-5.44-.61-7.96-2.52-.03-2.17,3.35-4.28,3.84l.08,.07Z"/><path class="cls-1" d="M10.18,292.85c-4.24-.64-4.23-4.31-4.27-7.08-.24-15.1-.14-30.21-.12-45.31,0-1.92,.29-3.83,2.07-5.08h0c0,14.95,.09,29.89-.06,44.83-.04,4.44,.2,8.69,2.34,12.67l.04-.04Z"/><path class="cls-1" d="M200.25,144.52c-2.15-.23-3.23-3.19-5.83-2.29l.06,.06c-1.37-5.98-7.3-9.56-8.3-15.77-.29-1.77-1.17-3.45-.97-5.62,3.7,8.8,12.1,14.42,14.97,23.67l.06-.05Z"/><path class="cls-1" d="M230.14,154.89c-.21,2.76,.8,5.21,1.84,7.68,.41,.98,.84,2.37-.42,3.02-1.29,.67-.99-2.04-2.79-1.37v14.59c.22-10.03-2.92-19.72-3.33-30.11,3.03,1.37,1.85,5.35,4.72,6.22l-.03-.04Z"/><path class="cls-1" d="M208.18,217.57c.15,2.14-.83,4.32-2.37,4.04-2.24-.4-3.2-2.72-2.99-5.2,.14-1.63-.33-3.87,2.17-3.74,3.12,.17,2.63,3.09,3.19,4.89Z"/><path class="cls-1" d="M50.43,144.52c.22,5.73-3.16,10.66-3.42,16.28-1.48-6.01-1.69-11.73,3.5-16.21l-.08-.07Z"/><path class="cls-1" d="M79.62,221.11c1.92-.11,1.7,1.23,1.75,2.31,.08,2.06-1.22,2.54-2.95,2.45-1.33-.07-3.18-.2-3.01-1.77,.24-2.21,2.79-2.1,4.22-2.99Z"/><path class="cls-1" d="M201.32,146.91c1.65,1.47,3.92,2.53,3.98,5.14,.02,.69-.97,1.46-1.71,.97-2.18-1.47-2.13-3.86-2.21-6.15l-.06,.05Z"/><path class="cls-1" d="M7.86,235.38c-.01-1.48,.79-2.21,2.19-2.42l.25,.26c-.21,1.39-.95,2.19-2.43,2.16h0Z"/><path class="cls-1" d="M111.5,91.69l.87,1.08-.57,.35c-.09-.49-.17-.97-.26-1.46l-.04,.03Z"/><path class="cls-1" d="M200.19,144.57c.38,.78,.76,1.56,1.14,2.34l.06-.05c-.93-.51-1.11-1.39-1.13-2.34l-.06,.05Z"/><path class="cls-1" d="M194.42,142.23l-.46,.6c.02-.12,0-.29,.06-.35,.12-.1,.3-.13,.46-.2l-.06-.06Z"/><path class="cls-2" d="M169.02,90.61c-2.03,6.66-.35,14.61-6.84,19.75q-4.66-3.78-2.27-9.15c1.2-2.7,1.49-5.34,.59-8.32-1.63-5.35-.49-10.15,4.02-13.85l-.04-.03c-.1,1.96,.13,3.69,1.91,5.07,1.49,1.16,3.53,2.58,3.81,4.15,1.47,8.4,8.17,9.46,14.59,11.13,.62,.16,1.06,1,1.58,1.53l.02-.03c-1.85-.09-3.69-.17-5.54-.25-.49-.63-1.41-1.18-1.75-.46-.47,1,.77,.74,1.33,.94-.08,1.02-.88,2.3-1.54,1.28-2.78-4.38-9.05-5.89-9.74-11.9-.2-.32-.15-1.15-.85-.4l.7,.55Z"/><path class="cls-2" d="M127.65,51.73c-4.97,.14-7.22-4.06-10.47-6.47-1.43-1.06-.15-2.72,.77-3.38,1.52-1.09,2.76-3.83,5.21-2.16,2.97,2.02,6.45,1.99,9.65,3.06,1.89,.63,4.69,.49,4.86,3.17,.14,2.35-2.42,3.37-4.04,4.37-1.65,1.02-3.96,.99-5.98,1.41Z"/><path class="cls-2" d="M131.42,73.41c1.32-.16,1.72,1.21,2.64,1.78,2.62,1.62,5.32,2.36,7.78-.21,3.81-3.96,7.2-.75,10.64,.59,1.76,.69,1.87,2.32,1.13,3.86-.86,1.82-2.19,1.47-3.82,.84-6.06-2.35-12.31-1.86-18.52-.75-1.52,.27-3,1.09-4.2-.31-.81-.94-.56-2.18,.09-3.21,.96-1.51,2.2-2.63,4.24-2.6Z"/><path class="cls-2" d="M134.2,65.93c4.15-.04,8.26,.69,12.44-.08-3.39,3.64-4.6,3.64-12.44,.08Z"/><path class="cls-2" d="M186.37,100.89c6.16,.48,11.04,3.94,16.14,6.88h0c-6.17-.45-11.02-3.99-16.12-6.91l-.02,.03Z"/><path class="cls-2" d="M116.14,81.35c-2.84-.44-2.61-3.06-2.97-4.82-.62-3.07-1.84-5.65-3.98-7.85,2.62-.2,4.17,.83,4.7,3.55,.6,3.07,1.49,6.09,2.25,9.13Z"/><path class="cls-2" d="M175.05,113.2c-1.71-.25-1.85-1.86-2-2.92-.28-2.01,1.46-2.38,2.97-2.37,1.5,0,3.33,.38,2.92,2.4-.37,1.8-2.42,2.09-3.89,2.89Z"/><path class="cls-2" d="M208.28,111.21c-2.29-.53-4.51-1.18-5.77-3.44h0c2.35,.43,4.96,.45,5.75,3.46l.02-.02Z"/><path class="cls-2" d="M214.05,116.96l-1.5-1.48,.69-.37c.26,.63,.51,1.25,.77,1.88l.03-.03Z"/><path class="cls-2" d="M209.42,112.38c-.38-.39-.76-.78-1.14-1.17l-.02,.02c.39,.38,.79,.75,1.18,1.13l-.02,.02Z"/><path class="cls-2" d="M209.44,112.36l.59,.49c-.12-.01-.29,.03-.36-.04-.12-.11-.17-.28-.25-.43l.02-.02Z"/><path class="cls-2" d="M78.12,111.23c1.6-2.65,4.44-2.43,7.04-2.8-1.98,1.78-4.37,2.62-7.05,2.78l.02,.02Z"/><path class="cls-2" d="M95.42,105.46c-1.59,.32-3.18,.65-4.76,.97,1.14-1.99,2.66-3.15,4.94-2.96-.07,.68-.15,1.36-.22,2.04l.05-.05Z"/><path class="cls-2" d="M53.95,135.35c-.61,2.26-1.29,4.48-3.49,5.79,.24-2.48,.58-4.91,3.49-5.79Z"/><path class="cls-2" d="M64.31,120.4c-.31,2.18-1.94,3.38-3.48,4.64-.12-2.5,.83-4.21,3.48-4.64Z"/><path class="cls-2" d="M105.76,99.72c-1.02,1.95-2.65,2.45-5.43,2.08,1.98-1.57,3.6-2.08,5.44-2.08h0Z"/><path class="cls-2" d="M56.25,131.9c-.24,1.52-.95,2.73-2.34,3.49,.04-1.66,.19-3.24,2.34-3.49Z"/><path class="cls-2" d="M71.22,116.96c-.75,1.39-1.96,2.09-3.48,2.32,.18-2.23,1.85-2.25,3.48-2.32Z"/><path class="cls-2" d="M60.86,125c-.22,1.34-.9,2.21-2.34,2.33,.19-1.36,.79-2.32,2.34-2.33Z"/><path class="cls-2" d="M67.76,119.26c-.89,1.2-2.18,1.2-3.49,1.17,.88-1.22,2.17-1.23,3.49-1.17Z"/><path class="cls-2" d="M108.08,97.44c.01-.95,.23-1.8,1.14-2.31l-.02-.02c.01,.96-.23,1.8-1.15,2.3l.03,.03Z"/><path class="cls-2" d="M57.4,129.6c-.39,.78-.79,1.56-1.18,2.35,.01-.97,.11-1.9,1.18-2.35Z"/><path class="cls-2" d="M58.55,127.3c.02,.99-.18,1.86-1.18,2.34,.01-.97,.24-1.83,1.18-2.34Z"/><path class="cls-2" d="M106.91,98.58c.39-.38,.78-.76,1.17-1.14l-.03-.03c-.38,.39-.76,.77-1.14,1.16h0Z"/><path class="cls-2" d="M106.91,98.58c-.38,.38-.77,.77-1.15,1.15h0c.38-.38,.77-.76,1.15-1.15h0Z"/><path class="cls-2" d="M7.86,235.38c1.48,.03,2.22-.78,2.43-2.16,47.59-.06,95.17-.14,142.75-.18,35.88-.03,71.76,0,107.64,.02,8.32,0,9.84,1.45,9.86,9.58,.03,13.6,.03,27.19,0,40.79-.02,7.78-1.67,9.4-9.43,9.4-83.08-.01-166.16-.03-249.24-.04-.57,0-1.15,.06-1.72,.1-2.13-3.98-2.38-8.23-2.34-12.67,.15-14.94,.06-29.89,.06-44.83Zm184.27,42.55c0-1.33,.12-2.68-.02-4-.2-1.81-1.64-2.09-2.98-1.67-1.29,.41-3.93,.76-3.1,2.4,1.72,3.41-.71,5.81-1.17,8.64-.24,1.46-1.33,3.07,1.05,3.63,1.89,.45,2.78-.83,3.34-2.37,.83-2.29,.88-4.92,2.91-6.68,.01,2.48,.17,4.97,0,7.44-.34,5,2.09,5.94,6.4,4.74-3.6-7.47-3.34-10.38,1.11-13.74,1.93,3.42-5.34,8.17,.65,10.35,9.12,3.32,11.36-4.36,13.46-11.39,1.93,2.28,.82,3.65,.67,5.08-.23,2.11-3.08,4.84-.55,6.14,3.08,1.6,2-3.49,4.31-4.05,.36-.09,.71-.25,1.39-.49,.1,2.38,.32,4.88,3.4,4.99,3.1,.11,2.61-2.79,3.45-4.51,.58-1.19,.82-2.54,1.28-3.8,.57-1.55,.74-3.96,2.91-3.61,2.07,.33,2.55,2.71,2.85,4.57,.17,1.05-.42,2.2-.59,3.32-.23,1.41-1.26,3.28,.94,3.82,2.01,.49,2.6-1.51,2.87-2.88,.72-3.66,3.09-6.07,5.7-8.37,.9-.79,2.06-1.37,3.15-.73,1.18,.69,.87,2.02,.57,3.11-.84,3.03-1.85,6-4.19,8.86,4.15,.38,8.06,1.98,7.12-4.49-.29-2.04,1.21-4.36,1.99-6.51,.48-1.33,1.3-2.51,2.98-1.75,1.34,.6,1.19,1.76,.78,2.94-.56,1.62-1.3,3.23-1.55,4.91-.24,1.63-2.6,3.96,.16,4.87,2.92,.97,3-2.19,3.68-4.01,1.44-3.82,1.72-8.3,6.43-10.36-7.95,.28-15.58-1.19-23.19,.5-6.04,1.34-12.53-2.72-18.44,1.33-.1,.07-.72-.84-1.2-1.09-5.56-2.92-10.06-.97-12.28,4.78-.97,2.5-.53,7.78-4.57,6.38-3.16-1.09,.3-4.91,.86-7.44,.99-4.44-.19-5.73-4.95-4.69-3.45,.75-4.73,4.35-7.63,5.82Zm.58-34.72c-3.89,1.02-6.9,3.05-9.77-.8-4.7-6.3-8.73-6.92-16.43-4.47-3.75,1.19-7.61,5.43-11.69,2.3-5.46-4.18-11.38-2.49-17.14-2.43-2.06,.02-4.78,1.3-5.97,2.91-1.31,1.77,2.4,1.26,2.57,2.79,.12,1.08-.09,2.26-.41,3.32-1.06,3.48-2.28,6.91-3.35,10.38-.43,1.39-1.74,3.01-.55,4.24,1.26,1.3,3.29,.56,4.98,.49,2.14-.08,2.69-1.73,3.23-3.46,1.55-4.93,3.21-9.82,4.85-14.72,.6-1.79,1.66-2.98,3.8-2.74,1.4,.16,2.66,.51,3.41,1.8,.83,1.42,.32,3.2-.84,3.48-6.45,1.58-7.1,5.63-5.29,11.04,.15,.45-.25,1.1-.43,1.65-.88,2.75-2.14,5.55,1.03,7.76,3.35,2.33,6.93,1.88,10.44,.59,1.73-.64,1.83-2.47,.19-2.9-6.47-1.71-3.82-7.02-4.65-10.93-.3-1.44,0-2.81,1.83-2.88,1.65-.06,1.37,1.43,1.71,2.46,3.34,10.11,11.55,13.54,21.21,8.93,2.27-1.08,4.44-2.27,6.13-4.19,1.28-1.45,2.34-1.66,3.56,.2,3.82,5.81,9.61,5.56,15.42,4.54,1.55-.27,4.59-.2,3.84-3.04-.59-2.21-2.95-1.17-4.49-.85-4.36,.9-7.23-1.04-7.06-5.12,.22-5.12,2.62-9.35,7.85-11.74,4.3-1.96,7.75,.93,11.42,1.62,1.54,.29-.91,4.64-1.49,7.14-.52,2.23-1.37,4.38-1.91,6.6-.4,1.66-3.14,4.11,.76,4.71,2.29,.35,5.02,1.17,6.06-3.09,1.33-5.44,2.82-10.97,5.56-16.03,2.17-4.01,.99-5.42-3.71-5.29-2.63,.07-4.91,2.39-7.77,.9-8.22-4.3-15.26,.97-23.29,2.05,1.74,3.12,4.07,1.36,6.38,2.8Zm-49.77,35.59c-.87-1.52-4.01-1.12-2.68-3.79,1.01-2.03,2.86-1.74,4.51-1.38,3.42,.75,3.87,2.72,2.88,6-.66,2.19-3.7,5.68-.24,6.89,2.99,1.04,2.15-3.65,3.68-5.35,.21-.24,.63-.3,.96-.44q3.19,7.86,8.57,2.42c2.5,5.31,7.25,4.39,11.53,3.75,3.69-.55,3.64-4.36,3.7-6.91,.08-3.34-2.84-1.9-5.08-1.99,1.31,2.52,2.26,4.97-.6,6.57-1.42,.79-3.19,.35-3.98-1.24-1.25-2.53-.29-4.66,1.36-6.83,1.99-2.62,5.17-1.54,8.21-2.84-5.47-3.9-10.76,.74-15.91-1.05-2.04-.71-1.41,4.4-3.85,5.6-2.05-1.75-.53-5.92-4.82-6.17-9.29-.54-18.55,1.78-27.87,.14-1.54-.27-4.95,.46-4.05,2.51,1.45,3.28-.98,5.47-.88,8.18,.05,1.33-2.03,3.04,.29,3.92,2.45,.93,3.42-1.02,4.05-2.92,.84-2.53,1.5-5.13,2.33-7.66,.39-1.17,1.26-1.94,2.61-1.78,1.37,.16,1.21,1.34,1.72,2.21,1.83,3.14,5.46,5.45,3.85,9.93,0,.02,.65,.41,.99,.39,2.96-.15,6.13,.98,8.92-.93-1.33-2.38-5.23,.83-5.31-3.04-.06-3.21,2.54-3.74,5.09-4.2Zm-82.09-29.92l1.03,.49c-.81,2.49-1.76,4.96-2.39,7.5-.4,1.62-2.31,3.77,.48,4.9,2.52,1.01,4.42-.08,5.35-2.72,1.9-5.39,4-10.73,5.63-16.2,.44-1.47,2.52-3.98-.15-4.92-2.33-.82-5.34-1.38-7.53,.89-1.32,1.37-2.4,2.96-3.57,4.47-.8,1.02-1.37,2.86-2.78,2.4-.79-.26-1.46-2.23-1.42-3.41,.14-4.82-2.83-5.06-6.39-4.74-3.24,.3-5.88,1.93-10.21,4.27,7.81-.38,5.27,3.26,4.41,6.1-.94,3.1-2.18,6.12-3.05,9.23-.49,1.76-2.47,4.11,.91,5.16,2.69,.83,4.22-.4,5.12-3.06,1.1-3.24,2.58-6.35,4.53-11.07,.4,2.73,.5,3.65,.68,4.54,.29,1.42-.59,3.5,1.15,4.09,1.99,.67,2.81-1.56,3.92-2.71,1.56-1.61,2.87-3.46,4.29-5.21Zm9.1,13.38c3.18,.69,5.32,1.12,6.8-.16,4.03-3.48,7.39-3.07,11.62,.09,3.59,2.68,7.08,.35,6.92-4.12-.17-4.55-.67-9.1-1.08-13.64-.25-2.76,1.07-7.07-1.71-7.75-2.54-.63-5.91,1.84-8.82,3.15-.88,.4-2.4,1.59-1.07,2.6,3.93,3.01-.11,4.61-1.23,6.12-3.35,4.54-7.2,8.71-11.43,13.7Zm28.41,11.94c-3.74-3.17-10.63-2.99-12.92-.01-3.04,3.95-2.89,9.35,.33,11.86,3.35,2.61,10.25,1.19,13.76-2.89,.48,.6,.9,1.24,1.44,1.76,3.97,3.91,8.57,4.09,12.77,.53,3.92-3.32,4.7-8.12,1.9-11.69-2.22-2.84-10.51-3.91-12.25-.15-2.39,5.15-5.83,3.79-9.42,4.37,.08,.63,0,1.2,.22,1.6,1.16,2.05,.45,3.84-1.19,4.95-1.34,.91-2.8,.15-4.09-1-2.09-1.87-.53-3.16,.21-4.9,1.74-4.09,5.3-4.3,9.25-4.41Zm140.9-36.1c-9.63-1.2-18.68,7.83-17.36,16.13,.29,1.83,.05,3.82-.3,5.66-1.3,6.8,1.99,9.98,8.95,8.37,1.39-.32,3.37-.21,3.87-1.95,.66-2.32-1.63-2.06-2.85-2.66-1.24-.61-2.39-1.3-2.47-2.87-.29-6.45-2.46-13.37,5.22-17.59,1.73-.95,2.9-2.94,4.94-5.09Zm-115.77-.56c-8.23,0-15.35-.05-22.46,.04-1.63,.02-4.06-.02-3.85,2.26,.19,2.14,2.49,1.16,3.82,1.04,4.54-.43,5.33,1.33,3.72,5.31-1.5,3.71-2.6,7.58-3.77,11.41-.56,1.83-2.39,4.27,1.02,5.04,2.65,.6,5.39,.55,6.16-3.23,.53-2.6,1.63-5.09,2.33-7.66,1.59-5.92,2.92-12,11.05-11.87,.32,0,.64-.73,1.98-2.34Zm-52.74,43.49c.99,2.14-2.4,4.83,.83,5.67,2.85,.74,2.81-2.5,3.51-4.29,.76-1.94,1.32-3.98,1.72-6.03,.25-1.31,1.96-2.97-.15-3.98-1.65-.79-3.34-.35-4.53,1.33-.63,.89-1.47,1.64-2.41,2.67-.84-1.42-1.26-2.76-2.16-3.53-1.63-1.37-3.59-1.01-5.38-.1-.8,.4-2.34,1.03-1.72,1.83,2.6,3.32-.22,6.09-.59,9.08-.14,1.13-.55,2.43,.78,2.99,1.71,.72,2.23-.75,2.99-1.87,.68-1,1.35-3.63,1.78-2.89,2.87,4.87,3.46-1.2,5.33-.88Zm-26.77,5.58c2.97,1.06,5.15-2.76,7.73-.98,4.38,3.01,4.75,.38,4.66-3.09-.06-2.46-.14-4.93-.25-7.39-.05-1.12-.05-2.75-1.39-2.68-1.6,.08-4.56,1.28-4.51,1.54,1.1,5.72-5.53,7.38-6.23,12.61Zm-30.58,1.2c4.14-1.99,7.39-3.86,10.69-1.03,.59,.51,1.74-.79,1.87-1.72,.53-3.8,.79-7.6-.77-11.29-1.07-2.54-3.35-1.01-3.5-.27-1.05,5.21-5.96,8.11-8.3,14.32Zm17.29-14.83c3.62,3.15,4.73,6.87,2.97,11.23-.44,1.09-.41,2.38,1.13,2.67,1.34,.25,2.4-.66,2.53-1.79,.51-4.44,4.04-7.42,5.53-11.86-4.31,4.34-7.17-2.77-12.16-.26Zm95.32,6.06c-1.83,8.92-.66,13.6,6.15,10.45-3.14-2.74-1.82-7.72-6.15-10.45Z"/><path class="cls-1" d="M180.44,101.09c-.56-.2-1.8,.06-1.33-.94,.33-.72,1.26-.16,1.75,.46-.14,.16-.28,.32-.42,.48Z"/><path class="cls-1" d="M169.02,90.61l-.7-.55c.7-.75,.65,.08,.85,.4l-.15,.15Z"/><path class="cls-1" d="M192.72,243.21c-2.31-1.44-4.64,.32-6.38-2.8,8.03-1.07,15.07-6.34,23.29-2.05,2.86,1.5,5.14-.83,7.77-.9,4.7-.13,5.87,1.28,3.71,5.29-2.73,5.06-4.23,10.59-5.56,16.03-1.04,4.27-3.78,3.45-6.06,3.09-3.9-.6-1.16-3.06-.76-4.71,.54-2.22,1.39-4.37,1.91-6.6,.58-2.51,3.04-6.86,1.49-7.14-3.67-.68-7.12-3.58-11.42-1.62-5.24,2.39-7.64,6.62-7.85,11.74-.17,4.09,2.7,6.02,7.06,5.12,1.55-.32,3.91-1.36,4.49,.85,.75,2.85-2.29,2.77-3.84,3.04-5.81,1.03-11.6,1.27-15.42-4.54-1.23-1.87-2.28-1.65-3.56-.2-1.69,1.91-3.86,3.1-6.13,4.19-9.66,4.6-17.87,1.17-21.21-8.93-.34-1.03-.05-2.52-1.71-2.46-1.83,.06-2.13,1.44-1.83,2.88,.83,3.91-1.82,9.22,4.65,10.93,1.64,.43,1.54,2.26-.19,2.9-3.51,1.29-7.09,1.75-10.44-.59-3.16-2.2-1.91-5.01-1.03-7.76,.18-.55,.58-1.19,.43-1.65-1.81-5.41-1.16-9.46,5.29-11.04,1.16-.28,1.67-2.06,.84-3.48-.75-1.29-2.01-1.64-3.41-1.8-2.14-.24-3.2,.95-3.8,2.74-1.64,4.9-3.3,9.79-4.85,14.72-.55,1.73-1.09,3.38-3.23,3.46-1.69,.06-3.72,.81-4.98-.49-1.19-1.23,.12-2.85,.55-4.24,1.07-3.47,2.29-6.9,3.35-10.38,.32-1.06,.53-2.24,.41-3.32-.17-1.53-3.88-1.02-2.57-2.79,1.19-1.61,3.91-2.89,5.97-2.91,5.76-.06,11.67-1.75,17.14,2.43,4.09,3.13,7.95-1.11,11.69-2.3,7.7-2.45,11.73-1.83,16.43,4.47,2.87,3.85,5.88,1.82,9.77,.8Zm-29.46,10.55c-.24,2.3,.5,4.21,2.61,5.25,2.17,1.06,4.11,.26,5.73-1.31,1.36-1.33,3.05-2.56,3.81-4.2,1.75-3.74,3.98-7.88-.22-11.42-2.56-2.16-7.2,.42-9.93,5.25-1.12,1.99-2.28,4-2.01,6.44Z"/><path class="cls-1" d="M192.13,277.93c2.9-1.47,4.18-5.07,7.63-5.82,4.75-1.04,5.94,.25,4.95,4.69-.57,2.53-4.02,6.35-.86,7.44,4.04,1.4,3.6-3.88,4.57-6.38,2.22-5.75,6.72-7.7,12.28-4.78,.48,.25,1.1,1.16,1.2,1.09,5.91-4.05,12.4,0,18.44-1.33,7.61-1.69,15.24-.21,23.19-.5-4.71,2.06-4.99,6.53-6.43,10.36-.69,1.82-.76,4.98-3.68,4.01-2.76-.91-.4-3.24-.16-4.87,.25-1.68,.99-3.28,1.55-4.91,.41-1.18,.55-2.34-.78-2.94-1.69-.75-2.5,.43-2.98,1.75-.79,2.15-2.29,4.48-1.99,6.51,.93,6.47-2.97,4.87-7.12,4.49,2.34-2.86,3.35-5.83,4.19-8.86,.3-1.09,.62-2.42-.57-3.11-1.09-.64-2.25-.06-3.15,.73-2.61,2.3-4.97,4.71-5.7,8.37-.27,1.38-.86,3.37-2.87,2.88-2.2-.53-1.16-2.41-.94-3.82,.18-1.12,.76-2.27,.59-3.32-.29-1.86-.78-4.24-2.85-4.57-2.17-.35-2.34,2.06-2.91,3.61-.46,1.25-.7,2.61-1.28,3.8-.84,1.72-.35,4.62-3.45,4.51-3.09-.11-3.3-2.62-3.4-4.99-.68,.24-1.03,.4-1.39,.49-2.31,.56-1.22,5.65-4.31,4.05-2.52-1.31,.33-4.03,.55-6.14,.15-1.43,1.27-2.8-.67-5.08-2.1,7.02-4.34,14.7-13.46,11.39-5.99-2.18,1.28-6.93-.65-10.35-4.45,3.36-4.71,6.27-1.1,13.74-4.31,1.2-6.73,.26-6.4-4.74,.17-2.47,0-4.96,0-7.44l-.03,.04Z"/><path class="cls-1" d="M142.94,278.81c-2.55,.46-5.16,.99-5.09,4.2,.08,3.86,3.97,.66,5.31,3.04-2.8,1.92-5.96,.78-8.92,.93-.34,.02-1-.37-.99-.39,1.61-4.49-2.02-6.79-3.85-9.93-.51-.88-.36-2.06-1.72-2.21-1.35-.16-2.22,.61-2.61,1.78-.84,2.53-1.5,5.13-2.33,7.66-.63,1.9-1.59,3.85-4.05,2.92-2.32-.88-.24-2.59-.29-3.92-.11-2.72,2.33-4.9,.88-8.18-.9-2.04,2.51-2.78,4.05-2.51,9.32,1.64,18.58-.68,27.87-.14,4.29,.25,2.77,4.41,4.82,6.17,2.44-1.21,1.81-6.31,3.85-5.6,5.15,1.79,10.44-2.85,15.91,1.05-3.04,1.3-6.22,.22-8.21,2.84-1.65,2.17-2.61,4.3-1.36,6.83,.79,1.59,2.56,2.03,3.98,1.24,2.86-1.59,1.91-4.05,.6-6.57,2.23,.09,5.15-1.35,5.08,1.99-.06,2.56,0,6.36-3.7,6.91-4.28,.64-9.03,1.56-11.53-3.75q-5.38,5.44-8.57-2.42c-.32,.14-.74,.2-.96,.44-1.53,1.7-.69,6.39-3.68,5.35-3.46-1.21-.42-4.7,.24-6.89,.99-3.28,.54-5.25-2.88-6-1.66-.36-3.51-.65-4.51,1.38-1.33,2.67,1.81,2.27,2.68,3.79Z"/><path class="cls-1" d="M60.85,248.89c-1.42,1.75-2.72,3.6-4.29,5.21-1.12,1.15-1.93,3.38-3.92,2.71-1.74-.59-.86-2.67-1.15-4.09-.18-.89-.28-1.81-.68-4.54-1.96,4.72-3.44,7.83-4.53,11.07-.9,2.66-2.43,3.89-5.12,3.06-3.38-1.05-1.41-3.4-.91-5.16,.87-3.12,2.11-6.13,3.05-9.23,.86-2.84,3.41-6.48-4.41-6.1,4.33-2.34,6.97-3.97,10.21-4.27,3.56-.33,6.53-.08,6.39,4.74-.03,1.18,.63,3.15,1.42,3.41,1.4,.46,1.98-1.38,2.78-2.4,1.17-1.51,2.25-3.1,3.57-4.47,2.2-2.28,5.2-1.71,7.53-.89,2.68,.94,.59,3.45,.15,4.92-1.63,5.47-3.73,10.8-5.63,16.2-.93,2.64-2.84,3.73-5.35,2.72-2.79-1.12-.88-3.27-.48-4.9,.63-2.54,1.58-5,2.39-7.5l-1.03-.49Z"/><path class="cls-1" d="M69.95,262.27c4.23-4.99,8.08-9.16,11.43-13.7,1.12-1.52,5.16-3.12,1.23-6.12-1.33-1.02,.19-2.21,1.07-2.6,2.91-1.31,6.28-3.77,8.82-3.15,2.78,.68,1.46,4.99,1.71,7.75,.41,4.54,.9,9.09,1.08,13.64,.17,4.47-3.32,6.81-6.92,4.12-4.23-3.16-7.59-3.58-11.62-.09-1.49,1.29-3.62,.85-6.8,.16Z"/><path class="cls-1" d="M98.36,274.21c-3.95,.11-7.51,.32-9.25,4.41-.74,1.74-2.31,3.03-.21,4.9,1.29,1.15,2.75,1.91,4.09,1,1.64-1.1,2.35-2.9,1.19-4.95-.23-.4-.14-.97-.22-1.6,3.59-.58,7.03,.78,9.42-4.37,1.74-3.75,10.03-2.69,12.25,.15,2.8,3.57,2.02,8.37-1.9,11.69-4.2,3.56-8.81,3.38-12.77-.53-.53-.52-.95-1.16-1.44-1.76-3.51,4.08-10.41,5.5-13.76,2.89-3.22-2.51-3.37-7.91-.33-11.86,2.29-2.98,9.18-3.16,12.92,.01Zm14.49,4.25c-.09-1.82,.1-4-2.36-3.86-4.01,.24-5.27,3.33-5.72,6.7-.25,1.84,.57,3.73,2.75,3.47,3.61-.42,4.95-3.12,5.33-6.31Z"/><path class="cls-1" d="M239.25,238.11c-2.04,2.16-3.2,4.14-4.94,5.09-7.68,4.22-5.51,11.14-5.22,17.59,.07,1.56,1.23,2.26,2.47,2.87,1.23,.61,3.51,.34,2.85,2.66-.49,1.74-2.48,1.63-3.87,1.95-6.96,1.61-10.24-1.57-8.95-8.37,.35-1.85,.59-3.83,.3-5.66-1.33-8.3,7.73-17.33,17.36-16.13Z"/><path class="cls-1" d="M123.48,237.55c-1.34,1.61-1.66,2.34-1.98,2.34-8.13-.14-9.46,5.95-11.05,11.87-.69,2.58-1.8,5.06-2.33,7.66-.77,3.78-3.51,3.83-6.16,3.23-3.41-.77-1.58-3.22-1.02-5.04,1.17-3.83,2.27-7.7,3.77-11.41,1.61-3.98,.82-5.74-3.72-5.31-1.33,.13-3.62,1.1-3.82-1.04-.21-2.28,2.22-2.24,3.85-2.26,7.11-.09,14.23-.04,22.46-.04Z"/><path class="cls-1" d="M70.74,281.04c-1.88-.32-2.47,5.74-5.33,.88-.43-.73-1.11,1.9-1.78,2.89-.76,1.12-1.28,2.59-2.99,1.87-1.34-.57-.92-1.86-.78-2.99,.37-2.99,3.19-5.75,.59-9.08-.62-.8,.92-1.43,1.72-1.83,1.8-.91,3.75-1.27,5.38,.1,.91,.76,1.32,2.11,2.16,3.53,.93-1.02,1.77-1.77,2.41-2.67,1.19-1.68,2.87-2.12,4.53-1.33,2.11,1.01,.4,2.68,.15,3.98-.39,2.05-.95,4.09-1.72,6.03-.71,1.79-.67,5.03-3.51,4.29-3.23-.84,.16-3.54-.83-5.67Z"/><path class="cls-1" d="M43.98,286.62c.7-5.22,7.33-6.89,6.23-12.61-.05-.25,2.92-1.45,4.51-1.54,1.35-.07,1.35,1.56,1.39,2.68,.1,2.46,.18,4.93,.25,7.39,.09,3.47-.27,6.1-4.66,3.09-2.58-1.78-4.75,2.04-7.73,.98Z"/><path class="cls-1" d="M13.4,287.82c2.33-6.2,7.25-9.1,8.3-14.32,.15-.74,2.43-2.27,3.5,.27,1.55,3.69,1.29,7.49,.77,11.29-.13,.93-1.28,2.23-1.87,1.72-3.29-2.82-6.54-.95-10.69,1.03Z"/><path class="cls-1" d="M30.69,272.99c4.99-2.51,7.86,4.59,12.16,.26-1.49,4.44-5.01,7.42-5.53,11.86-.13,1.13-1.2,2.04-2.53,1.79-1.55-.29-1.57-1.58-1.13-2.67,1.75-4.36,.65-8.08-2.97-11.23Z"/><path class="cls-1" d="M192.16,277.89c-2.03,1.77-2.08,4.39-2.91,6.68-.56,1.54-1.45,2.82-3.34,2.37-2.38-.56-1.28-2.17-1.05-3.63,.46-2.83,2.89-5.23,1.17-8.64-.83-1.64,1.81-1.99,3.1-2.4,1.34-.42,2.79-.15,2.98,1.67,.14,1.32,.02,2.66,.02,4l.03-.04Z"/><path class="cls-1" d="M126,279.05c4.33,2.73,3.01,7.71,6.15,10.45-6.82,3.16-7.98-1.53-6.15-10.45Z"/><path class="cls-2" d="M163.26,253.77c-.27-2.44,.89-4.45,2.01-6.44,2.73-4.83,7.37-7.4,9.93-5.25,4.2,3.54,1.97,7.68,.22,11.42-.77,1.64-2.45,2.87-3.81,4.2-1.61,1.57-3.56,2.37-5.73,1.31-2.12-1.04-2.85-2.95-2.61-5.25Z"/><path class="cls-2" d="M112.84,278.46c-.38,3.2-1.72,5.9-5.33,6.31-2.18,.25-3-1.64-2.75-3.47,.45-3.37,1.71-6.46,5.72-6.7,2.45-.14,2.27,2.04,2.36,3.86Z"/></g></g></svg>